<?xml version="1.0" standalone="no"?>
<!DOCTYPE svg PUBLIC "-//W3C//DTD SVG 20010904//EN"
 "http://www.w3.org/TR/2001/REC-SVG-20010904/DTD/svg10.dtd">
<svg version="1.0" xmlns="http://www.w3.org/2000/svg"
 width="835.000000pt" height="274.000000pt" viewBox="0 0 835.000000 274.000000"
 preserveAspectRatio="xMidYMid meet">

<g transform="translate(0.000000,274.000000) scale(0.100000,-0.100000)"
fill="#000000" stroke="none">
<path d="M2143 1760 c-167 -39 -97 -219 127 -327 144 -69 274 -106 491 -138
31 -5 36 -9 32 -25 -8 -30 -58 -68 -106 -81 -117 -31 -285 26 -587 201 -405
236 -533 294 -750 345 -168 39 -346 -2 -441 -102 l-34 -35 35 7 c19 5 76 8
125 8 187 -1 373 -76 667 -271 310 -206 472 -288 665 -337 312 -78 661 -68
846 27 93 47 167 149 167 231 0 45 -23 103 -53 135 -18 19 -22 35 -22 86 0 52
-4 68 -26 97 -31 40 -104 79 -145 78 -23 0 -20 -3 18 -13 66 -18 113 -57 134
-111 13 -36 15 -51 6 -70 -11 -23 -12 -24 -46 -10 -41 17 -96 19 -148 5 -42
-12 -98 -70 -98 -103 0 -12 -4 -27 -8 -33 -12 -18 -61 -26 -118 -18 -46 5 -54
9 -54 28 0 42 -57 141 -115 199 -108 110 -254 189 -410 222 -76 16 -103 17
-152 5z m108 -24 c251 -54 549 -267 549 -393 0 -18 -3 -33 -6 -33 -26 0 -268
55 -336 76 -212 67 -398 197 -398 279 0 27 27 64 54 75 30 13 62 12 137 -4z
m-966 -6 c145 -21 277 -80 559 -249 393 -237 603 -320 786 -309 91 5 148 35
170 87 l12 31 92 0 c91 0 91 0 108 -30 23 -41 76 -65 122 -56 38 7 76 36 76
58 0 7 -7 3 -15 -9 -22 -32 -79 -48 -116 -33 -28 12 -69 54 -69 70 0 4 21 11
47 15 69 10 150 43 188 76 18 16 37 29 43 29 17 0 59 -57 72 -96 29 -88 -36
-206 -147 -266 -135 -74 -370 -98 -583 -59 -291 52 -526 151 -864 363 -167
104 -394 213 -511 245 -79 21 -123 27 -212 27 -62 1 -113 3 -113 6 1 11 77 58
121 74 26 10 71 21 100 26 30 4 56 8 59 9 3 0 37 -4 75 -9z m1952 -285 l36
-15 -24 -26 c-32 -34 -81 -59 -156 -78 -81 -21 -83 -21 -83 14 0 37 51 97 94
109 48 14 93 13 133 -4z"/>
<path d="M4215 1723 c-7 -40 -33 -94 -64 -132 l-19 -25 -43 37 c-65 56 -116
77 -188 77 -69 0 -108 -16 -140 -56 -31 -39 -27 -86 10 -128 68 -78 206 -74
316 10 17 13 36 24 41 24 30 0 92 -203 92 -300 0 -65 -31 -141 -76 -186 -49
-50 -100 -69 -162 -60 -101 14 -167 81 -218 224 -56 158 -86 229 -124 293 -43
73 -115 157 -163 191 -23 16 -15 4 26 -41 66 -72 84 -104 122 -221 76 -235
168 -379 276 -436 17 -8 55 -18 85 -21 98 -10 171 34 219 133 l23 48 13 -42
c27 -90 113 -154 210 -154 144 -1 270 144 369 421 56 156 82 203 153 274 l62
62 -50 -36 c-104 -74 -201 -224 -270 -419 -21 -58 -46 -122 -56 -142 -89 -176
-301 -197 -388 -38 -47 84 -37 269 20 383 35 70 35 70 91 28 83 -63 183 -79
265 -42 69 32 94 111 52 165 -32 40 -71 56 -141 56 -75 0 -137 -25 -190 -77
l-37 -36 -20 24 c-30 35 -61 102 -68 143 -7 46 -19 46 -28 -1z m-243 -63 c42
-12 138 -84 138 -103 0 -33 -101 -93 -173 -103 -59 -8 -125 12 -159 48 -87 94
43 200 194 158z m662 -14 c38 -16 76 -60 76 -88 0 -33 -29 -77 -61 -94 -17 -8
-55 -18 -85 -21 -47 -5 -62 -2 -117 25 -111 55 -118 76 -45 135 67 54 163 72
232 43z"/>
<path d="M6160 1736 c-235 -49 -474 -231 -515 -393 l-12 -48 -80 -3 -80 -3
-12 45 c-27 107 -141 151 -263 101 -25 -10 -40 32 -28 77 17 61 109 128 174
128 40 0 56 11 56 36 0 54 -123 61 -218 13 -116 -57 -209 -191 -267 -384 -15
-50 -40 -118 -55 -152 -32 -70 -105 -155 -151 -173 -16 -7 -28 -15 -25 -17 9
-9 70 30 119 76 91 85 147 182 208 364 58 169 104 238 191 283 41 21 138 30
166 15 41 -22 22 -51 -34 -51 -36 0 -95 -27 -127 -58 -46 -43 -60 -79 -53
-132 5 -40 3 -50 -15 -66 -33 -29 -59 -94 -59 -148 0 -96 66 -186 175 -237
186 -87 497 -103 785 -39 222 50 369 121 743 358 205 130 337 196 462 228 86
22 116 25 213 22 77 -3 111 -1 109 6 -7 21 -103 86 -157 107 -70 27 -190 35
-272 20 -178 -34 -412 -133 -693 -293 -366 -209 -463 -250 -595 -252 -73 -1
-90 2 -123 22 -21 13 -44 37 -52 53 -18 33 -26 30 115 49 296 40 562 176 615
314 15 38 15 48 3 72 -7 15 -24 35 -38 45 -34 25 -130 31 -210 15z m218 -39
c37 -34 30 -79 -22 -135 -46 -49 -162 -123 -254 -161 -69 -29 -300 -88 -379
-97 l-63 -7 0 30 c0 84 135 211 325 306 182 90 337 116 393 64z m944 -2 c60
-7 163 -51 191 -83 16 -17 12 -18 -86 -18 -213 -1 -392 -68 -743 -275 -423
-250 -707 -352 -1019 -365 -217 -10 -394 37 -494 131 -52 48 -81 110 -81 169
0 39 30 105 59 130 21 19 22 19 49 -7 34 -33 120 -72 194 -88 53 -11 56 -13
46 -34 -13 -28 -59 -55 -95 -55 -29 0 -68 21 -90 50 -7 8 -13 10 -13 4 0 -17
44 -54 76 -62 59 -15 100 3 144 64 14 19 23 20 103 16 61 -3 87 -8 87 -17 0
-23 43 -67 84 -86 29 -13 65 -19 124 -19 189 0 378 79 857 362 81 48 265 135
335 158 64 21 171 40 200 34 8 -1 41 -5 72 -9z m-1946 -271 c37 -18 74 -69 74
-103 0 -17 -6 -21 -30 -21 -63 0 -230 79 -230 109 0 30 131 41 186 15z"/>
<path d="M3100 1727 c-27 -9 -35 -17 -35 -37 0 -17 6 -26 20 -28 20 -4 20 -4
0 11 -16 12 -17 18 -7 30 34 41 152 24 229 -32 55 -39 86 -96 138 -244 55
-159 76 -205 124 -276 40 -58 127 -144 165 -162 21 -10 21 -10 1 6 -104 82
-123 115 -201 345 -35 106 -62 165 -97 217 -89 134 -234 207 -337 170z"/>
</g>
</svg>
