<svg xmlns="http://www.w3.org/2000/svg" version="1.1" xmlns:xlink="http://www.w3.org/1999/xlink" xmlns:svgjs="http://svgjs.dev/svgjs" width="1000" height="1125" viewBox="0 0 1000 1125"><g transform="matrix(1,0,0,1,0.000006425112871966121,0)"><svg viewBox="0 0 320 360" data-background-color="#ffffff" preserveAspectRatio="xMidYMid meet" height="1125" width="1000" xmlns="http://www.w3.org/2000/svg" xmlns:xlink="http://www.w3.org/1999/xlink"><g id="tight-bounds" transform="matrix(1,0,0,1,0.0000020560361235766322,0)"><svg viewBox="0 0 320 360" height="360" width="320"><g><svg></svg></g><g><svg viewBox="0 0 320 360" height="360" width="320"><g><path transform="translate(-15.58119,4.24857) scale(3.51065,3.51065)" d="M51.5 85.2c-0.4-0.5-0.8-0.2-0.8-0.5-2.4 0.6-6.9-1-8.8-0.8 0.4-0.6-0.6-0.5-0.6-0.9-0.4 0.6-0.8 0-1.4 0.2-0.6-1.5-3-0.4-3.3-2.3-1.4 0-1.9-0.8-3.3-1.6 0.1-0.1 0.2-0.1 0.3-0.2-0.7-0.1-0.7-0.5-1.3-0.5l0.2-0.4c-1.1-0.2-1.5-1.9-3.1-2.5-0.5-0.1-1.6-1.8-2.2-2.2-0.3-0.2-0.8-0.2-0.1-0.3-0.1-0.1-0.1-0.3 0-0.4-0.7-0.2-0.8-0.8-1.7-1.1-0.1-0.3 0.2-0.5 0-0.7-0.2-0.1-0.5 0.1-0.7 0-0.1 1.8 1.9 2 2.5 3.5-0.2-0.2-0.5-0.8-0.7-0.4-0.1 0.3 0.8 1.4 0.8 0.8-0.3 0.2-0.4-0.3-0.2-0.4 0.3 0.5 0.9 0.4 0.9 0.8-0.3 0.3-0.7-0.3-0.6 0.2 0.9 0.5 0.8 1 1.3 1.7-0.4-0.5-0.5 0.4-0.9 0-0.1-1.5-1.8-1.2-1.8-2.7-0.2-0.5-0.4-0.1-0.7-0.3 0.4-0.4-1.2-1.8-1.2-1.3-0.5-0.6-0.2-0.8-0.3-1.2-0.4-0.1-0.1 0.4-0.4 0.1 0.4-0.7-0.5-1.6-1.1-2.3l0.4-0.2c-0.7-0.4-0.8-1.2-1.3-2.1-0.6 0.9 1.2 2.9 0.9 3.3 0 0.1 0.7 0.9 0.9 1.3 0.8 1.4 1.4 3.1 2.5 3.9-0.2-0.1-0.1-0.7 0.2-0.4 0 0.3-0.2 0.6-0.2 0.9 0.6 0.6 1.1 1.1 1.7 1.7-1.3-0.8-2.6-1.6-3.5-2.8 0.5-0.1 1 0.8 1.4 0.7-1-0.8-0.7-1.1-1.1-2.1-0.4-0.3 0.1 0.4-0.3 0.5-1.3-1.2-2.3-1.9-2.9-3 0.1-0.1 0.2-0.2 0.2-0.4-0.1-0.1-0.1-0.1-0.2-0.2 0.6 0.6 0.8 1.1 1.5 1.2-0.3-0.3 0-0.4-0.4-0.7-0.2-0.4-0.5 0.2-0.7-0.1 0.2-0.3 0-0.7 0-1-0.2 0-0.4 0-0.5-0.3-0.2-0.1-0.3 0-0.4 0.2-0.1-0.1-0.1-0.3-0.2-0.4v-0.1c-0.1-0.1-0.2-0.3-0.3-0.4-0.8-2.1-1.3-4.9-2.4-6.7 0.3-1.2-0.2-3.6-0.5-4.2 0.3-0.5 0.1-2.8-0.1-3.2-0.5 0.2 0.1 1.3-0.4 1.6-0.5-2.2 0.3-4.7 0.1-6.7 0.2 0 0.4 0 0.4-0.1-0.3-0.3 0.2-0.9 0.1-1.6 0.4-0.9-0.9 1.3-0.9 2.2-0.1 0.2-0.5 0-0.4 0.5 0 0.7 0.2 2.1-0.2 3.1-0.2 0-0.2-0.2-0.4-0.1-0.1 0.5-0.2 1.1-0.3 1.6-0.1-0.2-0.2-0.5-0.2-0.6-0.5-2.5 0-5.4-0.2-7.5 0.4 0 0.4-0.6 0.7-0.8-0.1 0.8-0.3 1.8 0.2 2 0.4-3.9 1.2-8.2 3-12.4 1.3-3.1 3.2-6.2 5.5-8.7 0.2 0.3-0.1 1 0 1.3 2-2.1 3.3-4.6 5.5-6 0.1 0.5-0.9 0.9-0.9 1.3 0.9-0.9 1.2-0.6 2.2-0.9 0.3-0.4-0.4 0-0.5-0.4 0.6-0.4 1-0.9 1.4-1.2 0 0.1-0.1 0.1-0.1 0.2 1.1-0.3 1.2-0.9 2-1.1-0.1-0.1-0.3-0.2-0.6-0.1 0.2-0.1 0.5-0.3 0.8-0.4-0.1 0-0.1 0.1-0.2 0.1 0.6-0.3 0.1 0.1 0.1 0.3 0.1 0 0.2-0.1 0.2-0.1-0.6 0.4-1 0.6-1.2 1.3 0.3-0.2 0.4 0 0.8-0.3 0.4-0.2-0.1-0.5 0.2-0.7 0.3 0.2 0.7 0.1 1 0.1 0-0.2 0.1-0.4 0.3-0.5 0.1-0.2 0-0.3-0.1-0.3 0.1-0.1 0.2-0.1 0.4-0.2 0 0 0.1 0 0.1 0.1 1.7-0.8 3.6-1.5 5.4-2.1 1.1-0.1 2.5-0.1 3.1-0.8-0.2 0-0.4 0.1-0.5 0 0.1 0 0.3-0.1 0.4-0.1 0.2 0.2 0.5 0 0.2 0.4 0.1 0 0.1 0 0.2-0.1 0 0.1 0 0.1 0.1 0.2 0.1 0 0.2-0.1 0.3-0.3 0.1 0 0.2 0 0.3-0.1l-0.1 0.1c0.8-0.2 1.5-0.1 2.6-0.3 0-0.1 0-0.2 0-0.3 0.2 0 0.3-0.1 0.5-0.1v0.1c0.4-0.2 0.8 0.2 0.8 0 0.1 0 0.1 0 0.2 0 0 0.2-0.1 0.3-0.1 0.4 0.5 0 0.8 0 1-0.3-0.1-0.1-0.2-0.1-0.3-0.1 0.2 0 0.4-0.1 0.6-0.2 0.3 0.1 0.4 0.2 0.4 0.6 0.5-0.9 2.1 0.2 2.8 0 0.3 0 0.2-0.4 0.4-0.6 0.1 0 0.2 0 0.3 0 0.5 0.4 1.2 0.8 2.1 0.9-0.8-0.2 0.1-0.3 0.2-0.4-0.2 0-0.2-0.1-0.2-0.2 0.3 0 0.6 0.1 0.9 0.1 0 0.2 0.1 0.3 0.3 0.3 0.2 0 0.2-0.1 0.2-0.3 0.3 0 0.5 0 0.8 0.1-0.1 0.4 0.5 0.5 0.7 0.8-0.8-0.2-1.7-0.5-2 0 3.2 0.7 6.7 1.7 10.1 3.4 0 0 0 0 0 0.1h0.1c0.6 0.3 1.2 0.6 1.8 0.9 0.4 0.2 0.7 0.4 1.1 0.7 0 0.1 0 0.2 0.2 0.2h0.1c0.4 0.3 0.8 0.5 1.2 0.8 0.4 0.6 0.8 1.4 1.5 1.2 1.5 2.3 3.1 3.2 4.4 5.6 0.1-0.4 0.4 0.9 0.9 1-0.8-0.1 0.5 0.5-0.3 0.4 0.7 0.7 0.9 1 1 1.8-0.2-0.4-0.3-0.5-0.4-0.1-0.1 0.6 0.7-0.1 1 0.5-0.6 0-0.4 0.4-0.3 0.9 0.3-0.3 0.2-0.6 0.5-0.5 0.4 0.4-0.2 0.5-0.1 0.8 0.3-0.4 0.4-0.2 0.8 0-0.5 0.1 0.3 0.8-0.3 0.5 0.4 0.5 0.5 0.8 0.3 1.3-0.4-0.6-0.1-1-0.7-0.9 1.2 1 0.6 3.3 2 3.5-0.9 0.2 0 0.6-0.5 0.7 0.6 0.2 0.3 1 1 1.2-0.1 0.5-0.3 0.8-0.4 1.3 0.3 0.4 0.4 1.2 0.9 1.3-0.3 0.3-0.1 1.1-0.4 1.4 0.4-0.2 0.6-0.2 0.9 0.2-0.5 0.4-0.1 0.8-0.4 0.9 0.9 2.3-0.2 7 0.3 8.8-0.6-0.3-0.4 0.7-0.8 0.7 0.7 0.3 0.1 0.8 0.4 1.3-1.4 0.8 0 3-1.9 3.5 0.2 1.4-0.6 2-1.2 3.5-0.1-0.1-0.1-0.2-0.2-0.3-0.1 0.7-0.5 0.8-0.3 1.4l-0.4-0.2c0 1.1-1.7 1.7-2.1 3.4-0.1 0.5-1.6 1.8-2 2.5-0.2 0.3-0.1 0.8-0.3 0.1-0.1 0.1-0.3 0.1-0.4 0.1-0.1 0.7-0.7 0.9-0.9 1.8-0.2 0.1-0.5-0.2-0.7 0.1 0 0.2 0.2 0.5 0.1 0.7 1.8-0.1 1.8-2.2 3.2-2.9-0.1 0.3-0.7 0.6-0.3 0.8 0.3 0 1.2-1 0.7-0.9 0.3 0.2-0.3 0.4-0.4 0.3 0.5-0.4 0.3-0.9 0.7-1 0.3 0.2-0.3 0.7 0.3 0.6 0.4-0.9 0.9-1 1.5-1.5-0.4 0.4 0.5 0.5 0.1 0.9-1.5 0.3-1 2-2.5 2.2-0.4 0.3-0.1 0.4-0.2 0.7-0.5-0.3-1.6 1.4-1.2 1.3-0.5 0.5-0.8 0.3-1.2 0.4-0.1 0.4 0.4 0.1 0.2 0.4-0.7-0.3-1.6 0.7-2.2 1.4l-0.3-0.3c-0.3 0.8-1.1 0.9-2 1.5 1 0.5 2.7-1.6 3.2-1.3 0.1 0 0.9-0.8 1.2-1.1 1.3-1 2.9-1.8 3.5-2.9-0.1 0.2-0.7 0.2-0.4-0.1 0.3-0.1 0.6 0.1 0.9 0.1 1.6-2.2 3.6-4 5.1-6.6 0.1-0.1 0.2-0.3 0.3-0.5-0.2 0.6-0.5 1.1-0.7 1.7-1.6 1.1-2.2 4.3-4.1 4.8 0.1 1.1-0.9 1.4-1.4 2.7-0.3 0.4-0.5-0.3-0.8 0.2 0.3 1.4-2.5 1.3-2.4 2.6-0.2 0.1-0.5 0.2-0.7 0.4h-0.1c-0.1 0.1-0.1 0.1-0.2 0.2-0.5 0.3-0.9 0.6-1.3 0.9-1.4 0.8-3.3 1.4-4.8 2.2v-0.1c-0.4 0.2-0.9 0.1-0.8 0.5-0.3 0.2-0.6 0.4-0.9 0.6-0.1 0-0.1 0-0.2 0 0 0-0.1-0.1-0.2-0.1-0.2 0-0.2 0-0.3 0.1-1.3 0.1-3 0.7-3.5 1.1-0.5-0.3-2.8 0.2-3.2 0.4 0.2 0.3 0.8 0 1.3 0-0.3 0.1-0.6 0.2-0.7 0.4-0.1 0-0.1 0-0.2 0-0.1-0.3-0.4 0-0.5-0.1h0.1c-0.1-0.4-0.4-0.6-0.9-0.5 0 0.2 0 0.3-0.1 0.5 0.2 0 0.8-0.3 0.8 0-0.1 0-0.1 0.1 0 0.1-0.2 0.2-0.5 0.2-0.7 0.3-0.4 0-0.9 0-1.3 0-0.1-0.1-0.2-0.1-0.4-0.2-0.1 0.1-0.3 0.1-0.4 0.2-0.6 0-1.3 0.1-1.8 0.2 0-0.2 0-0.4-0.2-0.4-0.3 0.4-0.9-0.1-1.6 0.1-0.7-0.2 0.4 0.3 1.4 0.5-0.1 0.1-0.2 0.2-0.5 0.3M37.5 86.6c-1.4-1.3-4.3-1.9-4.8-2.9-0.8-0.1-2-1.6-3-1.8 0.5 0 0.1-0.3 0-0.5-0.2 0.2-0.4 0.3-0.6 0.3 0-0.8-0.8-1.3-1.5-1.8 0.5 0.3 0.9 0.5 1.5 0.6 0-0.2 0-0.4 0.2-0.4 0.7 0.7 1.5 1.4 2.4 2.1 1.2 1.1 7.4 3.9 8.5 4.4 0 0-0.2 0.4-0.1 0.4 0.5 0.3 0.9-0.3 1 0.4-1.6 0.2-2.2-0.9-3.6-0.8M83.6 63.4v0.1 0c-0.1 0 0-0.1 0-0.1M43.2 17.1c-0.1 0.1-0.2 0.1-0.2 0.1 0-0.1 0.1-0.1 0.2-0.1M41.3 17.6c0 0.1 0 0.1 0 0 0 0.1 0 0.1 0 0 0 0.1 0 0 0 0M34.7 19.7v0c0.1-0.1 0.1-0.1 0.2-0.1-0.1 0-0.2 0.1-0.2 0.1M50.7 16.4c-0.2 0-0.3 0-0.4-0.1 0.1 0 0.2 0 0.3 0h0.1c0 0 0 0 0 0.1M52.5 16.6c-0.1-0.1-0.4-0.2-0.7-0.2 0-0.1 0.1-0.2 0.1-0.2 0.1 0 0.2 0 0.3 0 0 0 0.1 0 0.1 0.1 0 0 0 0 0-0.1 0.1 0 0.1 0 0.2 0 0.1 0.2 0.2 0.3 0 0.4M55.8 16.9c-0.5 0.1-0.8-0.1-1.3-0.4 0.3 0 0.7 0.1 1 0.2 0.1 0 0.2 0.1 0.3 0.2M91.4 31.1c-0.2 0.1-0.3 0.1-0.5-0.3-1.6-3.4-4.5-8.3-8.7-12.4-4.1-4.2-9.6-7.6-14.6-9.4 0.3 0.1 0.7 0.3 0.5 0.5-4.4-1.7-8.6-2.7-12.6-3.1-10.8-1.7-22.1 0.6-30.8 6.2 0.1 0.2 0.1 0.3-0.2 0.5-3.2 2-7.7 5.5-11.3 10.1-3.6 4.6-6.4 10.4-7.6 15.6 0.1-0.3 0.2-0.8 0.4-0.6-2.6 10.3-1.9 19.1 1.7 26.7 0.2-0.2-0.5-1.2 0.1-1.1 0.4 1.1 0.9 2.3 1.5 3.4 0.7 1.6 1.5 3.7 2.6 4.2-2.8-5.5-4.7-11.8-4.9-17.4 0.4 0.8 0.3 2.5 0.9 3.2 0.2-3.8-0.7-8.9 0.6-12.5-0.3 1.9-0.5 4.5-0.3 7.1 0 1.9 0.9 7.2 1.5 7.7-0.1-0.1-0.1-0.6 0-0.6 0.3 0.6-0.4 0.9 0.1 1 0-0.2 0.1-0.2 0.2-0.2 1 2.2 2.3 5.6 3.3 7.3 1.2 2.2 2.8 4.2 4.6 6 0 0.1 0.1 0.1 0.1 0.2 0.2 0.5 0.9 1.1 1.1 1.5 0.1 0.2-0.1 0.5 0 0.7 1.5 2.8 3.7 5.6 6.4 7.8 1.7 2 4.4 4.1 7.7 5.9 3.2 1.7 6.9 3.1 10.3 3.9 2.4 0.6 5.3 0.7 7.1 1.1 2.4 0.5 6.6-0.2 8.7-0.6 12.6-1.9 25.1-10.5 31.4-22.9 6.5-12.5 6.3-27.8 0.7-39.5" fill="#e0d330" fill-rule="nonzero" stroke="none" stroke-width="1" stroke-linecap="butt" stroke-linejoin="miter" stroke-miterlimit="10" stroke-dasharray="" stroke-dashoffset="0" font-family="none" font-weight="none" font-size="none" text-anchor="none" style="mix-blend-mode: normal" data-fill-palette-color="tertiary"></path></g><g transform="matrix(1,0,0,1,80,119.72374991988622)"><svg viewBox="0 0 160 120.55250016022758" height="120.55250016022758" width="160"><g><svg viewBox="0 0 160.79999999999998 121.1552626610287" height="120.55250016022758" width="160"><g><rect width="160.79999999999998" height="3.7108256777532342" x="0" y="66.58160631113915" fill="#e0d330" opacity="1" stroke-width="0" stroke="transparent" fill-opacity="1" class="rect-i$-0" data-fill-palette-color="primary" rx="1%" id="i$-0" data-palette-color="#e0d330"></rect></g><g transform="matrix(1,0,0,1,0.3999999999999915,80.00663533379614)"><svg viewBox="0 0 160 41.14862732723256" height="41.14862732723256" width="160"><g id="textblocktransform"><svg viewBox="0 0 160 41.14862732723256" height="41.14862732723256" width="160" id="textblock"><g><svg viewBox="0 0 160 41.14862732723256" height="41.14862732723256" width="160"><g transform="matrix(1,0,0,1,0,0)"><svg width="160" viewBox="1.5 -51.25 315.82 81.5" height="41.14862732723256" data-palette-color="#e0d330"><g class="undefined-text-0" data-fill-palette-color="primary" id="text-0"><path d="M20.3 0.65Q18.05 0.65 16.35 0.28 14.65-0.1 12.35-0.8L12.35-0.8Q11.35-1.15 10.35-1.43 9.35-1.7 8.5-1.75L8.5-1.75Q7.85-1.8 7.55-1.9 7.25-2 6.45-2.5L6.45-2.5Q6.95-3.15 7.2-3.58 7.45-4 7.6-4.8L7.6-4.8Q8.5-8.8 10.65-19.75 12.8-30.7 12.8-32.15L12.8-32.15Q12.8-33.1 11.75-33.1L11.75-33.1Q10.95-33.1 8.7-32.75L8.7-32.75Q4.75-32.2 3.65-32.2L3.65-32.2Q2.55-32.2 2.02-32.6 1.5-33 1.5-34.05L1.5-34.05Q1.5-34.7 1.75-35.45L1.75-35.45Q2.7-35 3.45-34.85 4.2-34.7 5.95-34.7L5.95-34.7Q7.25-34.7 9.38-34.8 11.5-34.9 12.55-34.95L12.55-34.95Q17.55-35.25 19.6-35.25L19.6-35.25Q28.35-35.25 33.6-31.45 38.85-27.65 38.85-18.9L38.85-18.9Q38.85-12.95 36.38-8.5 33.9-4.05 29.68-1.7 25.45 0.65 20.3 0.65L20.3 0.65ZM20.3-1.5Q24.65-1.5 28.23-3.78 31.8-6.05 33.9-10.1 36-14.15 36-19.3L36-19.3Q36-27 31.48-30.2 26.95-33.4 19.8-33.4L19.8-33.4Q17.7-33.4 16.9-33.1 16.1-32.8 15.9-31.95L15.9-31.95Q13.5-20 11.05-7.35L11.05-7.35Q10.7-5.8 10.7-5.25L10.7-5.25Q10.7-4.6 11.55-4.05L11.55-4.05Q13.2-2.9 15.55-2.2 17.9-1.5 20.3-1.5L20.3-1.5ZM70.35-11.7Q71.1-11.5 71.15-10.8L71.15-10.8Q71.15-9.6 69.25-6.83 67.35-4.05 64.55-1.85 61.75 0.35 58.95 0.35L58.95 0.35Q57.05 0.35 55.97-0.78 54.9-1.9 54.9-3.8L54.9-3.8Q54.9-4.45 55-4.85L55-4.85Q53.9-3.05 52.12-1.48 50.35 0.1 48.65 0.1L48.65 0.1Q47.2 0.1 45.8-1.05 44.4-2.2 44.1-3.4L44.1-3.4Q44.05-5.65 44.72-8.55 45.4-11.45 47.8-19.8L47.8-19.8Q48.1-20.75 48.5-20.75L48.5-20.75Q48.9-20.75 49.55-20.35 50.2-19.95 50.2-19.55L50.2-19.55Q50.2-19.35 50.07-19 49.95-18.65 49.9-18.45L49.9-18.45Q46.7-7.65 46.55-4.15L46.55-4.15Q46.8-3.5 47.62-2.83 48.45-2.15 49.05-2.15L49.05-2.15Q49.7-2.15 50.85-2.93 52-3.7 53.3-5.48 54.6-7.25 55.7-10.1L55.7-10.1Q57-13.55 58.6-20.2L58.6-20.2Q58.7-20.75 59.15-20.75L59.15-20.75Q59.55-20.75 60.22-20.33 60.9-19.9 60.9-19.35L60.9-19.35Q60.9-18.9 60.45-17.55 60-16.2 59.9-15.85L59.9-15.85Q58.7-12.35 57.97-9.68 57.25-7 57.25-4.9L57.25-4.9Q57.25-1.65 59.5-1.65L59.5-1.65Q60.95-1.65 62.85-2.88 64.75-4.1 66.72-6.4 68.7-8.7 70.35-11.7L70.35-11.7ZM89.14-11.95Q90.05-11.8 90.05-10.95L90.05-10.95Q90.05-8.95 87.47-6.28 84.89-3.6 81.39-1.68 77.89 0.25 75.55 0.25L75.55 0.25Q73.3 0.25 71.64-0.93 70-2.1 69.12-3.55 68.25-5 68.25-5.7L68.25-5.7Q69.05-8.55 70-13.6L70-13.6 70.55-16.4Q70.75-17.4 72-18.48 73.25-19.55 74.8-20.28 76.34-21 77.3-21L77.3-21Q78.05-21 79.12-20.53 80.19-20.05 81.02-19.05 81.84-18.05 81.84-16.5L81.84-16.5Q81.84-14.7 80.64-13.1 79.44-11.5 77.09-10.5 74.75-9.5 71.44-9.5L71.44-9.5 70.75-6.15Q70.75-5.7 71.27-4.65 71.8-3.6 72.97-2.75 74.14-1.9 75.94-1.9L75.94-1.9Q78.34-1.9 81-3.48 83.64-5.05 85.84-7.4 88.05-9.75 89.14-11.95L89.14-11.95ZM76.89-18.95Q76.3-18.95 75.34-18.45 74.39-17.95 73.62-17.2 72.84-16.45 72.69-15.8L72.69-15.8Q72.19-13.55 71.8-11.25L71.8-11.25Q75.64-11.4 77.59-12.78 79.55-14.15 79.55-15.9L79.55-15.9Q79.55-17.15 78.64-18.05 77.75-18.95 76.89-18.95L76.89-18.95ZM108.19-14Q108.69-14 108.99-13.53 109.29-13.05 109.29-12.35L109.29-12.35Q109.29-11.45 108.79-10.45L108.79-10.45Q107.39-7.5 104.79-5.03 102.19-2.55 99.17-1.1 96.14 0.35 93.54 0.35L93.54 0.35Q88.24 0.35 88.24-5.8L88.24-5.8Q88.24-10.1 90.59-19.63 92.94-29.15 97.39-44.9L97.39-44.9Q98.34-48.15 99.47-49.7 100.59-51.25 102.04-51.25L102.04-51.25Q103.09-51.25 104.07-50.53 105.04-49.8 105.69-48.3 106.34-46.8 106.34-44.6L106.34-44.6Q106.34-41.05 104.67-35.6 102.99-30.15 99.64-24.1 96.29-18.05 91.59-12.9L91.59-12.9Q90.74-8.5 90.74-6.35L90.74-6.35Q90.74-3.95 91.72-2.93 92.69-1.9 94.44-1.9L94.44-1.9Q96.89-1.9 99.67-3.55 102.44-5.2 104.74-8 107.04-10.8 108.19-14L108.19-14ZM98.69-41.75Q94.49-26.65 92.34-16.7L92.34-16.7Q96.04-21.35 98.72-26.85 101.39-32.35 102.72-37.15 104.04-41.95 104.04-44.7L104.04-44.7Q104.04-46.25 103.59-47.38 103.14-48.5 102.09-48.5L102.09-48.5Q101.49-48.5 100.67-47.25 99.84-46 98.69-41.75L98.69-41.75ZM110.94 0.35Q109.19 0.35 107.82-0.83 106.44-2 106.44-4.3L106.44-4.3Q107.19-6.7 109.04-14.95L109.04-14.95Q109.94-19 110.14-19.8L110.14-19.8Q110.79-20.9 111.94-20.9L111.94-20.9Q112.69-20.9 112.69-20.4L112.69-20.4Q112.34-19.15 111.72-16.43 111.09-13.7 110.74-12.15L110.74-12.15Q109.39-5.95 108.89-4.2L108.89-4.2Q108.89-3.05 109.57-2.43 110.24-1.8 111.34-1.8L111.34-1.8Q113.84-1.8 116.37-3.58 118.89-5.35 120.82-7.7 122.74-10.05 123.69-11.75L123.69-11.75Q123.99-11.65 124.09-11.43 124.19-11.2 124.19-10.65L124.19-10.65Q124.19-9.9 123.69-9.1L123.69-9.1Q120.99-4.85 117.64-2.25 114.29 0.35 110.94 0.35L110.94 0.35ZM113.24-27.15Q112.54-27.15 112.14-27.63 111.74-28.1 111.74-28.85L111.74-28.85Q111.74-29.85 112.39-30.68 113.04-31.5 114.04-31.5L114.04-31.5Q114.84-31.5 115.22-31 115.59-30.5 115.59-29.8L115.59-29.8Q115.59-28.8 114.92-27.98 114.24-27.15 113.24-27.15L113.24-27.15ZM145.29-12.2Q145.79-12.2 146.01-11.78 146.24-11.35 146.24-10.8L146.24-10.8Q146.24-9 144.34-6.25 142.44-3.5 139.51-1.45 136.59 0.6 133.74 0.6L133.74 0.6Q131.94 0.6 130.96-0.3 129.99-1.2 129.99-3.05L129.99-3.05Q129.99-5.6 131.39-9.98 132.79-14.35 133.94-17.25L133.94-17.25Q133.74-17.55 133.54-17.55L133.54-17.55Q133.34-17.55 133.09-17.4L133.09-17.4Q132.19-16.85 130.14-14.95 128.09-13.05 126.14-10.95 124.19-8.85 123.49-7.55L123.49-7.55Q122.69-5.4 122.49-4.83 122.29-4.25 122.09-2.95L122.09-2.95 121.64-0.7Q121.59-0.55 121.54-0.33 121.49-0.1 121.41-0.05 121.34 0 121.19 0L121.19 0Q120.74 0 120.01-0.1 119.29-0.2 119.29-0.4L119.29-0.4Q119.29-1 119.64-2.35 119.99-3.7 120.34-4.8 120.69-5.9 120.89-6.5L120.89-6.5 121.34-7.9Q122.79-12.9 123.31-15.18 123.84-17.45 124.34-20.25L124.34-20.25Q124.39-20.75 125.04-20.75L125.04-20.75Q125.49-20.75 126.06-20.53 126.64-20.3 126.74-19.9L126.74-19.9Q126.54-19 126.01-16.85 125.49-14.7 124.74-12.1L124.74-12.1Q127.64-15.35 130.76-18 133.89-20.65 134.94-20.65L134.94-20.65Q135.44-20.65 136.14-20.15 136.84-19.65 136.99-19.2L136.99-19.2Q135.39-14.9 133.94-9.83 132.49-4.75 132.49-3.15L132.49-3.15Q132.49-1.4 134.49-1.4L134.49-1.4Q137.44-1.4 140.46-4.7 143.49-8 145.29-12.2L145.29-12.2ZM159.39-22.75Q159.99-22.15 160.59-21.75L160.59-21.75Q161.09-21.35 161.26-21.13 161.44-20.9 161.44-20.5L161.44-20.5Q161.44-20.1 161.24-19.5L161.24-19.5Q160.24-15.65 158.59-8.45L158.59-8.45Q157.49-3.55 156.59-0.05L156.59-0.05Q153.99 10.5 151.26 16.95 148.54 23.4 144.46 26.83 140.39 30.25 134.29 30.25L134.29 30.25Q130.29 30.25 127.54 28.88 124.79 27.5 123.49 25.4 122.19 23.3 122.19 21.1L122.19 21.1Q122.19 20.6 122.29 20.28 122.39 19.95 122.79 19.3L122.79 19.3Q125.74 27.35 134.39 27.35L134.39 27.35Q139.79 27.35 143.39 24.18 146.99 21 149.44 15.23 151.89 9.45 154.29 0L154.29 0 154.54-1Q154.64-1.4 154.74-1.75 154.84-2.1 154.89-2.45L154.89-2.45Q153.49-1.1 151.64-0.35 149.79 0.4 148.54 0.4L148.54 0.4Q147.24 0.4 146.01-0.45 144.79-1.3 144.04-2.58 143.29-3.85 143.29-5.05L143.29-5.05Q143.59-6.25 143.99-8.1 144.39-9.95 144.59-10.95L144.59-10.95 145.79-16.35Q146.04-17.4 147.39-18.6 148.74-19.8 150.46-20.6 152.19-21.4 153.44-21.4L153.44-21.4Q154.79-21.4 156.09-20.4 157.39-19.4 158.39-17.75L158.39-17.75Q158.69-19.15 158.94-21.05L158.94-21.05 159.19-22.7 159.39-22.75ZM155.89-6.85L157.79-15.1Q156.84-16.95 155.61-18.05 154.39-19.15 153.24-19.15L153.24-19.15Q152.44-19.15 151.29-18.63 150.14-18.1 149.19-17.23 148.24-16.35 147.99-15.3L147.99-15.3Q147.64-13.8 146.69-8.6L146.69-8.6 146.09-5.2Q146.09-4 146.96-2.95 147.84-1.9 148.99-1.9L148.99-1.9Q149.84-1.9 151.39-2.5 152.94-3.1 154.24-4.23 155.54-5.35 155.89-6.85L155.89-6.85Z" fill="#e0d330" data-fill-palette-color="primary"></path><path d="M171.89 0.6Q168.99 0.6 166.19-0.25 163.39-1.1 162.89-2.1L162.89-2.1Q163.14-3.3 163.34-5.38 163.54-7.45 163.54-8.55L163.54-8.55Q163.94-8.9 164.69-8.9L164.69-8.9Q164.69-6.05 165.32-4.45 165.94-2.85 167.39-2.13 168.84-1.4 171.49-1.4L171.49-1.4Q176.19-1.4 179.32-3.38 182.44-5.35 182.44-9L182.44-9Q182.44-10.9 181.34-12.78 180.24-14.65 177.44-17.25L177.44-17.25 176.09-18.5Q173.49-20.85 172.27-22.58 171.04-24.3 171.04-26.75L171.04-26.75Q171.04-29.15 172.27-31.13 173.49-33.1 175.77-34.23 178.04-35.35 180.99-35.35L180.99-35.35Q183.89-35.35 185.94-34.35 187.99-33.35 188.59-32L188.59-32Q188.59-30.5 188.14-28.55 187.69-26.6 187.59-26.25L187.59-26.25Q186.94-26.25 186.34-26.45L186.34-26.45 186.49-27.45Q186.59-28.35 186.59-28.9L186.59-28.9Q186.59-31.2 185.37-32.23 184.14-33.25 181.54-33.25L181.54-33.25Q177.89-33.25 175.72-31.6 173.54-29.95 173.54-27.3L173.54-27.3Q173.54-25.25 174.84-23.58 176.14-21.9 178.84-19.5L178.84-19.5 179.89-18.55Q183.09-15.65 184.27-13.85 185.44-12.05 185.44-9.7L185.44-9.7Q185.44-6.3 183.37-3.98 181.29-1.65 178.17-0.53 175.04 0.6 171.89 0.6L171.89 0.6ZM199.99 0.25Q197.39 0.25 195.74-0.98 194.09-2.2 193.34-3.68 192.59-5.15 192.59-5.7L192.59-5.7Q194.09-11.35 195.19-16.9L195.19-16.9Q195.39-17.9 196.46-18.78 197.54-19.65 198.96-20.2 200.39-20.75 201.49-20.75L201.49-20.75Q202.59-20.75 203.76-20.2 204.94-19.65 205.74-18.8 206.54-17.95 206.54-17L206.54-17Q206.54-15.6 205.19-14.55L205.19-14.55 204.94-14.6Q204.84-16.25 203.76-17.43 202.69-18.6 201.34-18.6L201.34-18.6Q200.19-18.6 198.84-17.82 197.49-17.05 197.29-16.05L197.29-16.05Q196.49-11.85 196.04-9.8L196.04-9.8 195.24-6.05Q195.24-5.4 195.81-4.42 196.39-3.45 197.54-2.73 198.69-2 200.39-2L200.39-2Q202.19-2 204.66-2.88 207.14-3.75 209.64-6.03 212.14-8.3 213.69-12.1L213.69-12.1Q214.19-12.1 214.34-11.75 214.49-11.4 214.49-10.8L214.49-10.8Q214.49-8.5 212.16-5.9 209.84-3.3 206.41-1.53 202.99 0.25 199.99 0.25L199.99 0.25ZM216.43 0.35Q214.68 0.35 213.31-0.83 211.93-2 211.93-4.3L211.93-4.3Q212.68-6.7 214.53-14.95L214.53-14.95Q215.43-19 215.64-19.8L215.64-19.8Q216.28-20.9 217.43-20.9L217.43-20.9Q218.18-20.9 218.18-20.4L218.18-20.4Q217.83-19.15 217.21-16.43 216.58-13.7 216.24-12.15L216.24-12.15Q214.89-5.95 214.39-4.2L214.39-4.2Q214.39-3.05 215.06-2.43 215.74-1.8 216.83-1.8L216.83-1.8Q219.33-1.8 221.86-3.58 224.39-5.35 226.31-7.7 228.24-10.05 229.19-11.75L229.19-11.75Q229.49-11.65 229.58-11.43 229.69-11.2 229.69-10.65L229.69-10.65Q229.69-9.9 229.19-9.1L229.19-9.1Q226.49-4.85 223.14-2.25 219.78 0.35 216.43 0.35L216.43 0.35ZM218.74-27.15Q218.03-27.15 217.64-27.63 217.24-28.1 217.24-28.85L217.24-28.85Q217.24-29.85 217.89-30.68 218.53-31.5 219.53-31.5L219.53-31.5Q220.33-31.5 220.71-31 221.08-30.5 221.08-29.8L221.08-29.8Q221.08-28.8 220.41-27.98 219.74-27.15 218.74-27.15L218.74-27.15ZM229.33 0.65Q226.93 0.65 225.26-0.5 223.58-1.65 223.58-3.15L223.58-3.15Q223.58-3.95 224.03-4.45 224.48-4.95 225.03-5.05L225.03-5.05Q225.58-3.15 226.83-2.2 228.08-1.25 229.88-1.25L229.88-1.25Q232.13-1.25 233.48-2.53 234.83-3.8 234.83-5.5L234.83-5.5Q234.83-6.75 234.11-7.7 233.38-8.65 231.93-9.9L231.93-9.9Q230.33-11.3 229.56-12.33 228.78-13.35 228.78-14.8L228.78-14.8Q228.78-16.35 229.76-17.75 230.73-19.15 232.26-20 233.78-20.85 235.43-20.85L235.43-20.85Q236.88-20.85 238.11-20.23 239.33-19.6 239.33-18.55L239.33-18.55Q239.33-17.55 238.13-16.45L238.13-16.45Q237.48-17.6 236.53-18.23 235.58-18.85 234.53-18.85L234.53-18.85Q232.93-18.85 232.11-17.68 231.28-16.5 231.28-15.35L231.28-15.35Q231.28-14.4 231.93-13.65 232.58-12.9 233.98-11.75L233.98-11.75Q235.68-10.3 236.58-9.15 237.48-8 237.48-6.45L237.48-6.45Q237.48-4.8 236.41-3.15 235.33-1.5 233.46-0.43 231.58 0.65 229.33 0.65L229.33 0.65ZM247.33 0.65Q244.93 0.65 243.25-0.5 241.58-1.65 241.58-3.15L241.58-3.15Q241.58-3.95 242.03-4.45 242.48-4.95 243.03-5.05L243.03-5.05Q243.58-3.15 244.83-2.2 246.08-1.25 247.88-1.25L247.88-1.25Q250.13-1.25 251.48-2.53 252.83-3.8 252.83-5.5L252.83-5.5Q252.83-6.75 252.11-7.7 251.38-8.65 249.93-9.9L249.93-9.9Q248.33-11.3 247.56-12.33 246.78-13.35 246.78-14.8L246.78-14.8Q246.78-16.35 247.75-17.75 248.73-19.15 250.25-20 251.78-20.85 253.43-20.85L253.43-20.85Q254.88-20.85 256.11-20.23 257.33-19.6 257.33-18.55L257.33-18.55Q257.33-17.55 256.13-16.45L256.13-16.45Q255.48-17.6 254.53-18.23 253.58-18.85 252.53-18.85L252.53-18.85Q250.93-18.85 250.11-17.68 249.28-16.5 249.28-15.35L249.28-15.35Q249.28-14.4 249.93-13.65 250.58-12.9 251.98-11.75L251.98-11.75Q253.68-10.3 254.58-9.15 255.48-8 255.48-6.45L255.48-6.45Q255.48-4.8 254.41-3.15 253.33-1.5 251.46-0.43 249.58 0.65 247.33 0.65L247.33 0.65ZM289.58-17.65Q290.08-17.5 290.08-16.65L290.08-16.65Q290.08-15.4 289.08-14.08 288.08-12.75 286.35-11.9 284.63-11.05 282.58-11.05L282.58-11.05Q279.83-11.05 277.73-12.55L277.73-12.55Q277.43-11.1 276.98-9.6L276.98-9.6Q276.83-9.05 276.33-7.08 275.83-5.1 275.63-3.55L275.63-3.55Q275.28-2.75 274.23-1.83 273.18-0.9 271.73-0.25 270.28 0.4 268.88 0.4L268.88 0.4Q267.33 0.4 265.88-0.4 264.43-1.2 263.5-2.55 262.58-3.9 262.58-5.55L262.58-5.55Q263.28-7.65 263.73-9.5 264.18-11.35 264.58-13.25L264.58-13.25 265.08-15.75Q265.33-16.9 266.43-18.03 267.53-19.15 269.1-19.88 270.68-20.6 272.28-20.6L272.28-20.6Q272.88-20.6 273.98-20.4L273.98-20.4Q274.13-21.55 274.5-22 274.88-22.45 275.73-22.45L275.73-22.45Q276.23-22.45 276.88-22.3L276.88-22.3Q276.63-20.9 276.63-19.9L276.63-19.9Q276.63-17 278.38-15 280.13-13 283.13-13L283.13-13Q285.38-13 287-14.2 288.63-15.4 289.58-17.65L289.58-17.65ZM273.43-4.4Q273.83-6.4 274.58-8.95L274.58-8.95Q275.58-12.3 275.88-14.35L275.88-14.35Q274.78-15.75 274.38-17.75L274.38-17.75Q274.38-17.95 274.3-18.07 274.23-18.2 273.98-18.25L273.98-18.25Q273.23-18.55 272.28-18.55L272.28-18.55Q270.43-18.55 269.08-17.55 267.73-16.55 267.38-15.15L267.38-15.15Q267.23-14.55 266.28-10.45L266.28-10.45Q265.83-8.05 265.18-5.7L265.18-5.7Q265.18-3.85 266.43-2.83 267.68-1.8 269.08-1.8L269.08-1.8Q270.28-1.8 271.65-2.65 273.03-3.5 273.43-4.4L273.43-4.4ZM308.68-17.85Q308.88-17.8 309.03-17.55 309.18-17.3 309.18-17L309.18-17Q309.18-15.95 308.2-14.98 307.23-14 305.65-13.4 304.08-12.8 302.48-12.8L302.48-12.8Q299.97-12.8 298.2-14.1 296.43-15.4 295.93-17.75L295.93-17.75Q293.68-17.5 291.8-14.9 289.93-12.3 289.18-9.25L289.18-9.25Q289.08-8.75 288.43-6.18 287.78-3.6 287.18-0.1L287.18-0.1Q287.13 0.05 287.05 0.13 286.98 0.2 286.73 0.2L286.73 0.2Q286.38 0.2 285.68-0.1 284.98-0.4 284.98-0.75L284.98-0.75Q284.98-1.45 285.23-2.6L285.23-2.6Q288.28-16.7 289.18-20.05L289.18-20.05Q289.28-20.5 289.4-20.65 289.53-20.8 289.83-20.8L289.83-20.8Q290.03-20.8 290.68-20.48 291.33-20.15 291.72-19.8L291.72-19.8 290.83-16.9 290.53-15.9Q291.68-17.7 293.18-18.8 294.68-19.9 296.38-19.9L296.38-19.9Q296.88-19.9 297.38-19.8 297.88-19.7 298.08-19.55L298.08-19.55Q298.08-17.1 299.35-15.93 300.63-14.75 302.93-14.75L302.93-14.75Q304.98-14.75 306.33-15.45 307.68-16.15 308.68-17.85L308.68-17.85ZM307.32 0.65Q304.92 0.65 303.25-0.5 301.57-1.65 301.57-3.15L301.57-3.15Q301.57-3.95 302.02-4.45 302.47-4.95 303.02-5.05L303.02-5.05Q303.57-3.15 304.82-2.2 306.07-1.25 307.87-1.25L307.87-1.25Q310.12-1.25 311.47-2.53 312.82-3.8 312.82-5.5L312.82-5.5Q312.82-6.75 312.1-7.7 311.37-8.65 309.92-9.9L309.92-9.9Q308.32-11.3 307.55-12.33 306.77-13.35 306.77-14.8L306.77-14.8Q306.77-16.35 307.75-17.75 308.72-19.15 310.25-20 311.77-20.85 313.42-20.85L313.42-20.85Q314.87-20.85 316.1-20.23 317.32-19.6 317.32-18.55L317.32-18.55Q317.32-17.55 316.12-16.45L316.12-16.45Q315.47-17.6 314.52-18.23 313.57-18.85 312.52-18.85L312.52-18.85Q310.92-18.85 310.1-17.68 309.27-16.5 309.27-15.35L309.27-15.35Q309.27-14.4 309.92-13.65 310.57-12.9 311.97-11.75L311.97-11.75Q313.67-10.3 314.57-9.15 315.47-8 315.47-6.45L315.47-6.45Q315.47-4.8 314.4-3.15 313.32-1.5 311.45-0.43 309.57 0.65 307.32 0.65L307.32 0.65Z" fill="#e0d330" data-fill-palette-color="primary"></path></g></svg></g></svg></g></svg></g></svg></g><g transform="matrix(1,0,0,1,56.89618498994008,0)"><svg viewBox="0 0 47.00763002011982 56.8674029662354" height="56.8674029662354" width="47.00763002011982"><g><svg xmlns="http://www.w3.org/2000/svg" xmlns:xlink="http://www.w3.org/1999/xlink" version="1.1" x="0" y="0" viewBox="9.500999999999998 1.093 79.357 96.002" enable-background="new 0 0 100 100" xml:space="preserve" height="56.8674029662354" width="47.00763002011982" class="icon-icon-0" data-fill-palette-color="accent" id="icon-0"><g fill="#e0d330" data-fill-palette-color="accent"><path fill="#e0d330" d="M26.159 33.633l12.503 16.054c3.678-5.026 6.633-9.048 8.201-11.18-0.095-0.13-0.162-0.223-0.162-0.223s-3.242-8.752-5.908-14.552c0.827-1.953 1.286-4.098 1.286-6.351 0-8.997-7.296-16.288-16.289-16.288-8.994 0-16.289 7.291-16.289 16.288 0 8.994 7.295 16.289 16.289 16.289C25.917 33.671 26.031 33.637 26.159 33.633zM17.646 17.382c0-4.498 3.646-8.145 8.145-8.145 4.498 0 8.145 3.646 8.145 8.145 0 4.499-3.646 8.145-8.145 8.145C21.291 25.526 17.646 21.881 17.646 17.382z" data-fill-palette-color="accent"></path><path fill="#e0d330" d="M59.831 56.266l-8.021 10.295 23.785 30.533c0 0 1.109-15.173-1.499-20.206C72.821 74.422 66.229 65.12 59.831 56.266z" data-fill-palette-color="accent"></path><path fill="#e0d330" d="M72.569 1.094c-8.993 0-16.289 7.291-16.289 16.288 0 2.253 0.459 4.397 1.286 6.351-2.666 5.8-5.908 14.552-5.908 14.552s-24.79 33.567-27.396 38.604c-2.608 5.033-1.498 20.206-1.498 20.206L72.2 33.633c0.128 0.004 0.242 0.038 0.369 0.038 8.994 0 16.289-7.295 16.289-16.289C88.858 8.385 81.563 1.094 72.569 1.094zM72.569 25.526c-4.498 0-8.145-3.646-8.145-8.145 0-4.498 3.646-8.145 8.145-8.145 4.499 0 8.145 3.646 8.145 8.145C80.714 21.881 77.068 25.526 72.569 25.526z" data-fill-palette-color="accent"></path></g></svg></g></svg></g><g></g></svg></g></svg></g></svg></g><defs></defs></svg><rect width="320" height="360" fill="none" stroke="none" visibility="hidden"></rect></g></svg></g></svg>